<svg xmlns="http://www.w3.org/2000/svg" viewBox="0 0 800 1000" role="img" aria-labelledby="title desc">
  <title id="title">Placeholder modelo base 02</title>
  <desc id="desc">Substitua este placeholder pela fotografia aprovada do modelo.</desc>
  <defs>
    <linearGradient id="bg" x1="0" x2="1" y1="0" y2="1">
      <stop offset="0" stop-color="#f1f5f9" />
      <stop offset="1" stop-color="#cbd5e1" />
    </linearGradient>
    <linearGradient id="shirt" x1="0" x2="1" y1="0" y2="1">
      <stop offset="0" stop-color="#475569" />
      <stop offset="1" stop-color="#1e293b" />
    </linearGradient>
  </defs>
  <rect width="800" height="1000" fill="url(#bg)" />
  <circle cx="400" cy="292" r="112" fill="#b98262" />
  <path d="M286 287c28-123 192-142 231-3-57-25-124-35-231 3Z" fill="#312e81" />
  <path d="M174 1000c19-258 70-407 226-407s214 149 226 407Z" fill="url(#shirt)" />
  <path d="M335 515c17 43 111 43 130 0v-91H335Z" fill="#b98262" />
  <path d="M343 507c24 43 91 48 114 0l-13-64h-88Z" fill="#f8fafc" opacity=".9" />
  <text x="400" y="884" text-anchor="middle" fill="#e2e8f0" font-family="Arial, sans-serif" font-size="28" font-weight="700" letter-spacing="5">PLACEHOLDER 02</text>
  <text x="400" y="925" text-anchor="middle" fill="#cbd5e1" font-family="Arial, sans-serif" font-size="17" letter-spacing="2">SUBSTITUIR PELA FOTO DO MODELO</text>
</svg>
